<svg xmlns="http://www.w3.org/2000/svg" xmlns:xlink="http://www.w3.org/1999/xlink" width="500" zoomAndPan="magnify" viewBox="0 0 375 374.999991" height="500" preserveAspectRatio="xMidYMid meet" version="1.0"><path fill="#f9e9db" d="M 374.378906 229.96875 L 354.871094 206.101562 L 364.207031 181.824219 C 364.417969 181.199219 364.417969 180.578125 364 180.164062 C 363.585938 179.746094 362.964844 179.332031 362.339844 179.539062 C 359.644531 179.746094 353.210938 180.992188 350.304688 181.40625 L 349.265625 181.613281 C 316.683594 187.425781 282.652344 195.933594 238.863281 209.007812 C 210.847656 217.515625 182.625 227.0625 155.4375 236.402344 C 137.796875 242.421875 119.328125 248.644531 101.273438 254.457031 C 73.050781 263.589844 51.050781 270.4375 30.507812 276.664062 C 29.882812 276.871094 29.261719 277.492188 29.261719 278.113281 C 29.261719 278.738281 29.46875 279.566406 30.089844 279.984375 L 52.503906 292.640625 L 44.203125 321.902344 C 43.996094 322.527344 44.203125 323.148438 44.617188 323.769531 C 45.03125 324.1875 45.449219 324.394531 45.863281 324.394531 C 46.070312 324.394531 46.277344 324.394531 46.277344 324.394531 C 57.898438 321.074219 69.730469 317.546875 81.972656 313.808594 C 87.785156 317.335938 129.289062 340.996094 184.285156 340.996094 C 199.640625 340.996094 216.242188 339.128906 233.257812 334.355469 C 312.328125 312.773438 331.835938 246.777344 334.324219 237.023438 C 342.417969 235.78125 350.511719 234.742188 358.398438 233.910156 C 363.171875 233.496094 367.738281 233.082031 372.09375 232.875 C 372.71875 232.875 373.339844 232.460938 373.753906 231.835938 C 375 231.214844 375 230.382812 374.378906 229.96875 Z M 233.257812 330.828125 C 162.699219 350.125 102.519531 320.449219 87.574219 312.148438 C 96.085938 309.660156 105.007812 306.960938 114.140625 304.054688 C 121.195312 301.773438 128.457031 299.699219 135.515625 297.207031 C 138.835938 298.453125 157.304688 304.261719 182.625 304.261719 C 194.867188 304.261719 208.980469 302.808594 223.503906 298.660156 C 274.972656 283.925781 288.046875 252.589844 290.121094 246.15625 C 304.441406 242.421875 318.136719 239.515625 331.628906 237.230469 C 327.683594 250.929688 307.140625 310.695312 233.257812 330.828125 Z M 141.324219 295.339844 C 158.964844 289.527344 176.605469 283.304688 193.828125 277.492188 C 213.335938 270.644531 233.675781 263.589844 253.597656 257.15625 C 264.597656 253.625 275.179688 250.515625 285.554688 247.609375 C 281.613281 256.53125 266.878906 282.679688 222.261719 295.339844 C 186.152344 305.714844 153.570312 298.867188 141.324219 295.339844 Z M 359.226562 230.175781 C 336.609375 232.460938 313.15625 236.609375 288.460938 243.042969 C 288.253906 243.042969 288.253906 243.042969 288.046875 243.25 C 276.632812 246.15625 264.804688 249.683594 252.558594 253.625 C 232.429688 260.058594 212.300781 267.117188 192.585938 273.964844 C 166.644531 283.09375 139.664062 292.433594 113.101562 300.527344 C 90.273438 307.582031 69.519531 313.808594 49.390625 319.621094 L 57.070312 292.226562 C 57.277344 291.398438 56.863281 290.566406 56.238281 290.152344 L 36.109375 278.945312 C 55.617188 273.132812 76.371094 266.492188 102.933594 257.777344 C 120.988281 251.964844 139.457031 245.742188 157.097656 239.515625 C 184.285156 230.175781 212.507812 220.628906 240.316406 212.121094 C 283.894531 198.839844 317.722656 190.539062 350.304688 184.726562 L 351.34375 184.519531 C 353.210938 184.105469 356.945312 183.484375 360.058594 183.066406 L 351.34375 205.480469 C 351.132812 206.101562 351.132812 206.726562 351.550781 207.347656 L 369.398438 229.347656 C 366.078125 229.554688 362.757812 229.96875 359.226562 230.175781 Z M 359.226562 230.175781 " fill-opacity="1" fill-rule="nonzero"/><path fill="#f9e9db" d="M 73.050781 163.558594 C 73.257812 163.558594 73.464844 163.558594 73.464844 163.558594 C 74.292969 163.351562 149.417969 141.148438 205.867188 118.734375 C 279.539062 89.679688 340.550781 84.699219 341.171875 84.699219 C 342.210938 84.699219 342.832031 83.664062 342.832031 82.832031 C 342.832031 81.796875 342.003906 81.171875 340.964844 81.171875 C 340.757812 81.171875 333.496094 81.796875 321.457031 83.664062 C 318.96875 79.511719 287.425781 27.007812 211.46875 9.160156 C 172.039062 0.03125 128.042969 8.746094 104.800781 22.027344 C 103.96875 22.441406 103.554688 23.6875 104.179688 24.519531 C 104.59375 25.347656 105.839844 25.761719 106.667969 25.140625 C 129.289062 12.066406 172.039062 3.558594 210.640625 12.6875 C 280.574219 29.082031 312.121094 75.570312 317.515625 84.078125 C 308.175781 85.53125 296.554688 87.8125 283.066406 90.925781 C 283.066406 90.925781 283.066406 90.925781 283.066406 90.71875 C 282.859375 90.304688 252.972656 50.667969 197.148438 42.574219 C 176.8125 39.667969 156.476562 41.535156 136.550781 48.382812 C 135.515625 48.796875 135.101562 49.835938 135.515625 50.667969 C 135.929688 51.703125 136.96875 52.117188 137.796875 51.703125 C 157.097656 45.0625 177.019531 43.195312 196.734375 46.101562 C 245.917969 53.363281 274.140625 85.324219 279.332031 91.757812 C 257.746094 96.945312 232.222656 104.414062 204.828125 115.207031 C 148.589844 137.414062 73.464844 159.617188 72.839844 159.824219 C 71.804688 160.03125 71.390625 161.070312 71.597656 162.109375 C 71.597656 163.144531 72.425781 163.558594 73.050781 163.558594 Z M 73.050781 163.558594 " fill-opacity="1" fill-rule="nonzero"/><path fill="#f9e9db" d="M 143.402344 62.496094 C 154.191406 58.757812 171.210938 54.816406 191.132812 56.890625 C 234.710938 61.25 256.503906 86.359375 256.710938 86.566406 C 257.125 86.984375 257.539062 87.191406 258.164062 87.191406 C 258.578125 87.191406 258.992188 86.984375 259.40625 86.777344 C 260.238281 86.152344 260.238281 84.90625 259.617188 84.285156 C 258.785156 83.246094 236.789062 57.722656 191.546875 53.15625 C 171.210938 51.082031 153.570312 55.230469 142.363281 58.96875 C 141.324219 59.382812 140.910156 60.417969 141.324219 61.25 C 141.53125 62.496094 142.570312 62.910156 143.402344 62.496094 Z M 143.402344 62.496094 " fill-opacity="1" fill-rule="nonzero"/><path fill="#f9e9db" d="M 122.648438 45.476562 C 118.289062 40.703125 112.894531 37.382812 107.292969 34.894531 C 95.878906 30.121094 83.011719 29.5 71.179688 31.574219 C 65.164062 32.609375 59.351562 34.273438 53.542969 36.761719 C 47.9375 39.253906 42.335938 43.195312 38.601562 48.796875 C 36.730469 51.703125 35.488281 54.609375 35.070312 58.34375 C 34.863281 62.078125 35.902344 65.402344 36.941406 68.304688 C 37.355469 69.550781 37.976562 70.589844 38.601562 71.625 C 37.769531 71.832031 36.941406 72.042969 35.902344 72.25 C 34.863281 72.457031 34.035156 72.664062 33.410156 72.871094 C 32.582031 73.078125 31.960938 73.285156 31.128906 73.492188 C 19.300781 77.644531 8.921875 85.738281 3.113281 97.359375 C 1.660156 100.265625 0.621094 103.378906 0.414062 106.90625 C 0 110.226562 0.621094 113.960938 2.074219 117.074219 C 4.980469 123.507812 10.792969 127.660156 16.601562 129.941406 C 22.414062 132.429688 28.636719 133.675781 34.863281 133.882812 C 36.316406 133.882812 37.976562 134.089844 40.261719 133.46875 C 40.882812 133.261719 41.710938 133.054688 42.335938 132.222656 C 42.75 131.808594 42.957031 131.601562 43.164062 131.1875 C 43.371094 130.769531 43.582031 130.5625 43.582031 130.355469 C 43.789062 129.941406 43.996094 129.527344 43.996094 129.109375 C 45.242188 131.394531 46.484375 133.46875 47.730469 135.75 L 52.296875 143.84375 C 53.75 146.542969 55.410156 149.035156 57.070312 151.730469 L 57.898438 152.976562 L 59.144531 153.390625 C 64.539062 154.84375 69.3125 154.222656 73.878906 153.183594 C 78.445312 152.144531 82.804688 150.695312 86.746094 148.617188 C 90.898438 146.75 94.839844 144.675781 98.574219 142.394531 C 102.308594 140.109375 106.046875 137.621094 109.574219 134.921875 C 101.480469 138.449219 93.386719 141.769531 85.085938 144.261719 C 80.933594 145.503906 76.785156 146.542969 72.632812 146.957031 C 69.105469 147.375 65.578125 147.582031 62.464844 146.75 C 61.21875 144.46875 59.976562 142.183594 58.730469 139.902344 L 53.957031 132.015625 C 50.636719 126.828125 47.523438 121.640625 44.410156 116.246094 L 37.769531 104.832031 L 38.390625 118.113281 C 38.601562 120.808594 38.601562 123.714844 38.183594 126 C 38.183594 126.414062 37.976562 126.828125 37.976562 127.035156 C 37.355469 127.035156 36.316406 127.035156 35.070312 127.035156 C 29.675781 126.828125 24.074219 125.582031 19.09375 123.507812 C 14.113281 121.433594 9.753906 118.113281 7.886719 113.960938 C 6.019531 109.8125 6.640625 104.414062 8.921875 99.851562 C 13.695312 90.304688 22.828125 82.832031 33.203125 79.304688 L 35.070312 78.683594 C 35.695312 78.472656 36.316406 78.265625 36.730469 78.265625 C 38.183594 78.058594 39.636719 77.851562 41.710938 77.230469 C 42.128906 77.023438 42.75 76.8125 43.371094 76.398438 C 43.582031 76.191406 43.996094 75.777344 44.410156 75.570312 C 44.824219 75.152344 45.03125 74.738281 45.242188 74.117188 C 45.65625 72.871094 45.449219 71.625 45.242188 71.003906 C 44.824219 69.964844 44.824219 69.964844 44.617188 69.550781 C 43.996094 68.304688 43.371094 67.0625 42.957031 65.816406 C 41.921875 63.324219 41.296875 60.835938 41.503906 58.757812 C 41.710938 56.683594 42.75 54.195312 43.996094 52.117188 C 49.597656 43.402344 61.21875 39.875 72.21875 37.800781 C 83.21875 35.722656 94.632812 36.347656 105.007812 40.289062 C 110.195312 42.363281 114.96875 45.0625 118.703125 49.007812 C 122.441406 52.742188 124.515625 57.722656 125.136719 63.117188 C 125.761719 68.511719 124.308594 73.910156 122.027344 79.097656 C 119.742188 84.285156 116.421875 89.265625 112.894531 93.832031 C 117.253906 89.886719 121.402344 85.53125 124.515625 80.34375 C 126.175781 77.851562 127.421875 74.945312 128.25 72.042969 C 129.289062 69.136719 129.703125 65.816406 129.496094 62.703125 C 129.496094 56.683594 127.007812 50.25 122.648438 45.476562 Z M 122.648438 45.476562 " fill-opacity="1" fill-rule="nonzero"/><path fill="#f9e9db" d="M 96.914062 87.8125 C 91.519531 88.019531 86.539062 89.058594 81.765625 90.71875 C 76.992188 92.171875 72.21875 94.246094 67.652344 96.320312 C 63.089844 98.605469 58.730469 101.09375 54.578125 103.792969 C 58.9375 101.511719 63.503906 99.640625 68.277344 97.773438 C 72.839844 96.113281 77.613281 94.660156 82.386719 93.625 C 86.332031 92.792969 90.480469 92.378906 94.425781 92.585938 C 92.347656 92.792969 90.480469 93 88.40625 93.417969 C 82.386719 94.871094 76.992188 97.359375 72.011719 100.679688 C 77.199219 97.773438 83.011719 95.699219 88.820312 94.871094 C 93.179688 94.246094 97.746094 94.246094 101.894531 95.285156 C 97.328125 94.660156 92.765625 95.078125 88.40625 95.90625 C 82.386719 97.359375 76.992188 99.851562 72.011719 103.171875 C 77.199219 100.265625 83.011719 98.191406 88.820312 97.359375 C 93.386719 96.738281 98.367188 96.738281 102.726562 97.980469 C 98.160156 97.359375 93.59375 97.773438 89.238281 98.605469 C 83.21875 100.058594 77.824219 102.546875 72.839844 105.867188 C 78.03125 102.960938 83.839844 100.886719 89.652344 100.058594 C 94.632812 99.433594 99.820312 99.640625 104.386719 101.09375 C 104.386719 101.09375 104.386719 101.09375 104.386719 101.300781 C 99.199219 100.058594 93.800781 100.472656 88.820312 101.511719 C 82.804688 102.960938 77.40625 105.453125 72.425781 108.773438 C 77.613281 105.867188 83.425781 103.792969 89.238281 102.960938 C 93.800781 102.339844 98.574219 102.339844 102.726562 103.585938 C 98.160156 102.960938 93.800781 103.378906 89.445312 104.207031 C 83.425781 105.660156 78.03125 108.152344 73.050781 111.472656 C 78.238281 108.566406 84.046875 106.492188 89.859375 105.660156 C 93.800781 105.039062 97.746094 105.039062 101.480469 105.867188 C 98.160156 105.867188 94.839844 106.074219 91.726562 106.90625 C 85.707031 108.359375 80.3125 110.847656 75.332031 114.167969 C 80.519531 111.265625 86.332031 109.1875 92.140625 108.359375 C 96.707031 107.734375 101.480469 107.734375 105.839844 108.980469 C 101.066406 108.152344 96.5 108.566406 91.933594 109.605469 C 85.917969 111.054688 80.519531 113.546875 75.539062 116.867188 C 80.726562 113.960938 86.539062 111.886719 92.347656 111.054688 C 96.914062 110.433594 101.480469 110.433594 105.839844 111.679688 C 101.6875 111.265625 97.746094 111.679688 93.800781 112.507812 C 87.785156 113.960938 82.386719 116.453125 77.40625 119.773438 C 82.597656 116.867188 88.40625 114.792969 94.21875 113.960938 C 97.121094 113.546875 100.027344 113.339844 102.933594 113.753906 C 104.386719 113.960938 105.839844 114.167969 107.082031 114.375 C 107.292969 114.375 107.5 114.585938 107.707031 114.585938 C 102.933594 113.753906 98.367188 114.167969 94.007812 115.207031 C 87.992188 116.660156 82.597656 119.148438 77.613281 122.46875 C 82.804688 119.566406 88.613281 117.488281 94.425781 116.660156 C 98.992188 116.035156 103.761719 116.035156 107.914062 117.28125 C 103.140625 116.453125 98.574219 116.867188 94.007812 117.90625 C 87.992188 119.355469 82.597656 121.847656 77.613281 125.167969 C 82.804688 122.261719 88.613281 120.1875 94.425781 119.355469 C 98.992188 118.734375 103.761719 118.734375 108.121094 119.980469 C 103.554688 119.148438 98.992188 119.773438 94.425781 120.601562 C 88.40625 122.054688 83.011719 124.546875 78.03125 127.867188 C 83.21875 124.960938 89.027344 122.886719 94.839844 122.054688 C 99.40625 121.433594 104.386719 121.433594 108.742188 122.886719 C 108.742188 122.886719 108.535156 122.886719 108.535156 122.886719 C 106.046875 122.675781 103.761719 122.886719 101.480469 123.09375 C 96.707031 123.714844 92.347656 125.167969 87.992188 127.035156 C 83.839844 128.902344 79.898438 131.394531 76.371094 134.300781 C 74.503906 135.75 73.050781 137.203125 71.183594 138.65625 L 66.617188 143.429688 L 71.804688 139.28125 C 73.671875 138.035156 75.332031 136.789062 77.40625 135.542969 C 81.144531 133.261719 85.085938 131.394531 89.238281 129.941406 C 93.386719 128.695312 97.539062 127.867188 101.894531 127.867188 C 103.972656 127.867188 106.046875 128.074219 108.121094 128.488281 C 109.988281 128.902344 112.273438 129.527344 113.726562 130.148438 L 118.707031 132.640625 L 118.289062 127.035156 C 118.082031 123.714844 117.460938 120.808594 116.628906 117.695312 C 116.007812 114.792969 115.175781 111.679688 114.347656 108.773438 C 113.308594 104.832031 112.066406 100.679688 110.613281 96.738281 L 113.933594 91.132812 C 107.707031 88.4375 102.101562 87.605469 96.914062 87.8125 Z M 96.914062 87.8125 " fill-opacity="1" fill-rule="nonzero"/><path fill="#f9e9db" d="M 113.722656 68.511719 C 114.554688 69.757812 116.007812 70.382812 117.460938 69.757812 C 117.667969 69.757812 117.667969 69.757812 117.667969 69.550781 C 119.121094 68.722656 119.535156 67.0625 118.703125 65.609375 C 98.78125 30.742188 57.691406 53.570312 57.277344 53.777344 C 55.824219 54.609375 55.410156 56.269531 56.238281 57.722656 C 57.070312 59.175781 58.730469 59.589844 60.183594 58.757812 C 61.636719 58.136719 96.5 38.628906 113.722656 68.511719 Z M 113.722656 68.511719 " fill-opacity="1" fill-rule="nonzero"/><path fill="#f9e9db" d="M 250.070312 234.949219 C 249.238281 234.949219 248.617188 234.535156 248.410156 233.703125 C 248.203125 232.667969 248.617188 231.628906 249.652344 231.421875 C 250.277344 231.214844 306.308594 212.953125 343.664062 208.179688 C 344.699219 207.972656 345.53125 208.800781 345.738281 209.839844 C 345.945312 210.875 345.117188 211.707031 344.078125 211.914062 C 307.140625 216.6875 251.3125 234.742188 250.898438 234.949219 C 250.277344 234.949219 250.070312 234.949219 250.070312 234.949219 Z M 250.070312 234.949219 " fill-opacity="1" fill-rule="nonzero"/><path fill="#f9e9db" d="M 70.351562 292.433594 C 69.519531 292.433594 68.898438 291.8125 68.691406 290.980469 C 68.484375 289.945312 69.105469 289.113281 69.9375 288.699219 C 119.742188 275.417969 147.136719 265.25 147.34375 265.039062 C 148.171875 264.625 149.417969 265.25 149.625 266.078125 C 150.042969 267.117188 149.417969 268.152344 148.589844 268.359375 C 148.382812 268.359375 120.78125 278.945312 70.765625 292.226562 C 70.558594 292.433594 70.558594 292.433594 70.351562 292.433594 Z M 70.351562 292.433594 " fill-opacity="1" fill-rule="nonzero"/><path stroke-linecap="butt" transform="matrix(0.710799, -0.2393, 0.2393, 0.710799, 26.875246, 191.32241)" fill="none" stroke-linejoin="miter" d="M 26.416179 57.57568 C 26.787802 57.77773 26.996041 58.089641 27.047493 58.50814 C 27.097283 58.931575 27.020446 59.290397 26.818593 59.59614 C 23.735734 63.872475 20.920277 67.403508 18.360688 70.190851 C 15.817569 72.978243 13.266008 75.284678 10.709279 77.116754 C 8.786442 78.469795 6.883759 79.142675 4.999567 79.140328 C 3.537001 79.142538 2.260063 78.756606 1.16548 77.975932 C 0.439049 77.456591 -0.274616 76.523885 -0.973902 75.189346 C -1.671575 73.866342 -2.051217 71.941478 -2.099633 69.408206 C -2.164519 66.874884 -1.540229 63.551405 -0.228425 59.442706 C -0.228425 59.442706 -0.23165 59.419638 -0.22984 59.365291 C 1.336614 54.369606 3.166363 50.550687 5.267619 47.916793 C 7.380409 45.281286 9.194504 43.941095 10.706628 43.889623 C 11.905821 43.837214 12.686599 44.358365 13.053898 45.454737 C 13.625866 46.955244 12.945794 49.105872 11.013682 51.906623 C 9.093154 54.68929 6.254693 57.65203 2.498347 60.778372 C 1.354287 64.421465 0.80718 67.270831 0.8603 69.333068 C 0.908483 71.393643 1.19391 72.880116 1.719855 73.799084 C 2.240913 74.699921 2.659151 75.285867 2.97623 75.551988 C 4.540764 76.699708 6.547782 76.386193 8.989023 74.619652 C 11.378945 72.940251 13.800013 70.760247 16.242304 68.092786 C 18.696178 65.407242 21.392675 62.001027 24.3186 57.880689 C 24.569913 57.558624 24.909779 57.365292 25.326715 57.285836 C 25.746925 57.212978 26.110633 57.307947 26.416179 57.57568 Z M 10.156577 47.172148 C 9.5807 47.527829 8.799351 48.297946 7.807594 49.480837 C 6.825758 50.650581 5.817615 52.35553 4.77163 54.597297 C 6.643163 52.776346 7.965407 51.232099 8.740025 49.959619 C 9.531162 48.670718 10.001685 47.746497 10.156577 47.172148 Z M 45.728344 1.74657 C 46.400661 2.736799 46.416052 4.747865 45.764646 7.776444 C 45.118225 10.790216 43.777889 14.526602 41.740365 18.979005 C 39.717649 23.436393 37.006694 28.371006 33.610774 33.789441 C 33.556231 33.853512 33.508285 33.914309 33.45379 33.961909 C 32.104807 39.486941 30.765399 45.114117 29.425646 50.856583 C 28.102413 56.582629 26.84042 62.20839 25.631457 67.725605 C 24.43564 73.252742 23.346228 78.447499 22.364833 83.321408 C 21.371904 88.196929 20.527172 92.534317 19.828974 96.338506 C 19.114306 100.142646 18.604483 103.191414 18.301168 105.479874 C 18.350578 105.480022 18.404925 105.481832 18.454335 105.481979 C 18.860659 105.646251 19.157994 105.905725 19.351276 106.262061 C 19.52804 106.634818 19.543326 107.030151 19.387265 107.444734 C 19.01864 108.441729 18.645376 109.338242 18.260873 110.137546 C 17.869722 110.956594 17.333235 111.35851 16.656299 111.361425 C 16.491597 111.360932 16.308863 111.332385 16.104771 111.285657 C 15.634229 111.116252 15.299215 110.789138 15.09318 110.291119 C 14.875611 109.794712 14.852227 108.803132 15.018091 107.314716 C 15.169098 105.837785 15.506966 103.560958 16.026759 100.482574 C 16.95935 94.855827 18.366491 87.509358 20.244909 78.436568 C 21.596358 72.08803 23.017356 65.614527 24.50458 59.025929 C 25.991853 52.420862 27.463579 46.057861 28.91482 39.935265 C 30.375934 33.815992 31.787623 28.25162 33.151548 23.237212 C 33.404833 22.256342 33.791061 20.880583 34.31517 19.111598 C 34.837666 17.331079 35.434648 15.427256 36.10939 13.406726 C 36.795714 11.368114 37.550947 9.418648 38.378412 7.548456 C 39.222396 5.661842 40.080203 4.109616 40.95843 2.888504 C 41.846578 1.654246 42.739697 0.960227 43.631189 0.809722 C 44.507873 0.654232 45.205279 0.96596 45.728344 1.74657 Z M 36.206041 23.485174 C 38.698871 18.790374 40.454776 14.880647 41.470433 11.765865 C 42.491076 8.636275 43.074334 6.365124 43.226806 4.949137 C 42.500627 5.99612 41.513101 7.966302 40.251032 10.866233 C 39.003822 13.754678 37.653846 17.960438 36.206041 23.485174 Z M 95.694859 57.097901 C 96.000602 57.299754 96.203905 57.610003 96.309703 58.030312 C 96.408904 58.453895 96.35831 58.84903 96.152986 59.214055 C 93.649032 63.223659 91.425675 66.481411 89.494451 68.985699 C 87.571487 71.481776 85.915481 73.380782 84.528047 74.694251 C 83.157132 75.991298 81.996624 76.875572 81.056398 77.350395 C 80.129367 77.81867 79.374325 78.053582 78.802807 78.053518 C 78.231289 78.053454 77.78337 78.029055 77.46565 77.977046 C 76.270866 77.65724 75.385261 76.941426 74.817095 75.821394 C 74.243994 74.6997 73.85876 73.542334 73.667992 72.346021 C 73.493694 71.149758 73.37784 70.236958 73.323755 69.59775 C 73.222147 67.777481 73.011684 66.558051 72.694027 65.934524 C 72.392841 65.311046 72.156598 65.000698 71.991897 65.000205 C 71.93755 64.998395 71.916144 64.996684 71.916144 64.996684 C 71.239207 64.999598 70.121315 65.953175 68.55587 67.860687 C 66.988813 69.756665 65.150044 72.737221 63.036288 76.795756 C 60.940615 80.865875 58.735875 86.157761 56.43194 92.674738 C 56.232278 93.349421 55.766804 93.687315 55.042119 93.685146 C 54.926828 93.684801 54.816473 93.686118 54.717653 93.685822 C 53.889802 93.484053 53.499371 92.962424 53.551296 92.122596 C 53.60503 91.228421 53.837071 89.641381 54.257339 87.348331 C 54.666073 85.056893 55.222757 82.309671 55.938924 79.105053 C 56.640284 75.89545 57.421508 72.415974 58.284259 68.661688 C 59.135477 64.909014 60.021444 61.102093 60.938838 57.250796 C 61.852957 53.392901 62.725383 49.707819 63.554455 46.200486 C 64.39511 42.675071 65.149055 39.505154 65.826163 36.694059 C 66.498335 33.881302 67.048603 31.626522 67.463773 29.936268 C 67.88554 28.24274 68.098991 27.363866 68.097526 27.302922 C 69.291124 22.51694 70.615201 18.159576 72.064821 14.229168 C 73.530961 10.282339 74.971715 7.112831 76.396957 4.723967 C 77.838717 2.318683 79.102601 1.01308 80.198481 0.810482 C 81.086699 0.653379 81.767783 0.915648 82.238459 1.590691 C 82.963312 2.637076 82.89586 4.812597 82.029504 8.120528 C 81.174681 11.426846 79.617241 15.612221 77.350585 20.679926 C 75.088915 25.732822 72.204541 31.378432 68.705673 37.625014 C 67.779872 41.533931 66.752504 45.809832 65.63344 50.456039 C 64.514426 55.085777 63.421656 59.751827 62.351855 64.447593 C 61.283715 69.138422 60.303948 73.468817 59.4126 77.422308 C 60.823097 74.456941 62.26897 71.778262 63.743622 69.389546 C 65.234793 66.984409 66.714465 65.119463 68.19251 63.798031 C 69.682138 62.458516 71.078937 61.86812 72.391167 62.018634 C 73.537034 62.173591 74.383544 62.744349 74.927375 63.740781 C 75.477803 64.733939 75.83699 65.789112 76.016471 66.904686 C 76.210759 68.025246 76.302179 68.847386 76.302263 69.369494 C 76.454598 71.300266 76.708944 72.715823 77.068624 73.606295 C 77.438226 74.483619 77.804124 74.947529 78.176191 75.001348 C 78.274864 75.051054 78.62587 74.987871 79.224273 74.810136 C 79.822725 74.615931 80.705627 74.03388 81.876302 73.054109 C 83.061835 72.062854 84.615154 70.354595 86.532935 67.939206 C 88.467236 65.507397 90.818009 62.050736 93.578656 57.572498 C 93.778896 57.255222 94.090807 57.046983 94.511116 56.941184 C 94.934699 56.841984 95.324898 56.890915 95.694859 57.097901 Z M 79.661646 5.180084 C 78.769977 6.490096 77.5805 8.798961 76.093215 12.10668 C 74.615802 15.417723 73.120032 19.909629 71.605903 25.582399 C 74.26511 20.328108 76.208355 16.008832 77.430703 12.622909 C 78.651438 9.225453 79.39344 6.743957 79.661646 5.180084 Z M 125.074516 57.651957 C 125.441351 57.802935 125.690888 58.073794 125.821466 58.469472 C 125.945495 58.851953 125.934489 59.227442 125.781849 59.599214 C 124.78919 61.633615 123.707582 63.671043 122.533752 65.704902 C 121.363245 67.728888 120.137223 69.5913 118.854024 71.297073 C 117.580746 72.989699 116.26403 74.337966 114.903874 75.341875 C 113.550267 76.35898 112.201463 76.872109 110.855849 76.869728 C 110.585729 76.872213 110.302512 76.848307 109.996326 76.794686 C 106.49676 76.122105 104.333431 71.431484 103.504679 62.72776 C 102.613355 63.92248 101.58489 65.263376 100.412687 66.75372 C 99.240483 68.244065 98.00411 69.712806 96.692034 71.161556 C 96.487154 71.37835 96.150167 71.710041 95.681075 72.156628 C 95.21037 72.591681 94.664159 72.940863 94.035843 73.207447 C 93.417449 73.460885 92.793296 73.437606 92.166706 73.127736 C 90.922955 72.659551 90.324201 71.303903 90.375381 69.062452 C 90.376002 67.754714 90.622949 66.13972 91.116223 64.217469 C 91.602949 62.282022 92.300512 60.340619 93.218784 58.396582 C 94.13217 56.434413 95.206292 54.69672 96.424681 53.183456 C 97.648006 51.671853 99.013147 50.653136 100.529976 50.130628 C 101.469857 49.771095 102.614703 49.716876 103.962901 49.956437 C 105.325957 50.184513 106.734543 51.158828 108.183722 52.877722 C 108.449631 53.181571 108.568773 53.54592 108.542811 53.965834 C 108.521784 54.38741 108.347837 54.72453 108.030842 54.980517 C 107.722057 55.244764 107.362643 55.365569 106.942729 55.339606 C 106.522815 55.313644 106.184033 55.144633 105.929708 54.822701 C 104.669121 53.376132 103.582502 52.686069 102.666527 52.762384 C 101.760423 52.842023 100.998685 53.11315 100.377989 53.585635 C 99.230826 54.41395 98.186334 55.606565 97.246128 57.175014 C 96.302647 58.736865 95.518685 60.379899 94.895903 62.099178 C 94.274783 63.81352 93.828582 65.416389 93.562235 66.909445 C 93.309084 68.395953 93.230077 69.47946 93.333475 70.151757 C 93.500134 70.048493 93.668504 69.923823 93.846844 69.769536 C 94.028509 69.605377 94.225129 69.396793 94.438368 69.138849 C 95.995011 67.420718 97.414907 65.717001 98.716189 64.022812 C 100.02573 62.320412 101.151847 60.820047 102.094539 59.521718 C 102.345999 59.150243 102.58915 58.803448 102.817443 58.468138 C 103.058933 58.126279 103.290402 57.830507 103.508577 57.574224 C 103.915309 57.051687 104.457655 56.893549 105.147146 57.098197 C 105.821978 57.24845 106.182989 57.694228 106.236779 58.432257 C 106.388049 61.818997 106.664843 64.539067 107.058899 66.600678 C 107.451342 68.650754 107.886514 70.182145 108.356155 71.20306 C 108.827458 72.21904 109.263482 72.91539 109.672489 73.283902 C 110.093029 73.650801 110.403758 73.837845 110.607997 73.835162 C 111.600549 74.037424 113.189674 73.022671 115.378695 70.781032 C 117.566054 68.544329 120.126411 64.399838 123.051507 58.35577 C 123.253704 57.934737 123.554279 57.66223 123.948295 57.536588 C 124.342359 57.394476 124.719412 57.433487 125.074516 57.651957 Z M 144.304986 57.17424 C 144.676609 57.376289 144.896382 57.686588 144.974177 58.10846 C 145.047035 58.52867 144.986569 58.920482 144.784519 59.292105 C 143.789966 60.858744 142.536285 62.607428 141.023476 64.538156 C 139.507392 66.462287 137.868054 68.295462 136.100525 70.036019 C 134.331334 71.781513 132.564692 73.225608 130.810471 74.371629 C 129.067785 75.516037 127.468458 76.087709 126.017425 76.088306 C 125.396497 76.088095 124.848342 75.985985 124.377898 75.783639 C 122.594844 75.007493 121.615581 73.117069 121.440109 70.112366 C 121.262974 67.1126 121.871893 62.871681 123.273414 57.402806 C 123.371805 56.996285 123.606598 56.69064 123.977792 56.485873 C 124.347374 56.269572 124.718124 56.213036 125.085107 56.314603 C 125.491628 56.412995 125.795611 56.652724 126.00204 57.018981 C 126.218341 57.388563 126.271603 57.752715 126.173359 58.109826 C 125.331634 61.442536 124.809848 64.0861 124.60634 66.045453 C 124.402831 68.004806 124.367115 69.482082 124.494256 70.47562 C 124.619785 71.457624 124.810518 72.115358 125.068069 72.460358 C 125.332217 72.802083 125.493102 72.97715 125.542512 72.977298 C 126.215238 73.280717 127.202473 73.05803 128.499283 72.307574 C 129.810951 71.545632 131.27687 70.423454 132.888781 68.949249 C 134.505678 67.460236 136.133137 65.743964 137.777757 63.79716 C 139.420764 61.838823 140.897704 59.786107 142.205253 57.648886 C 142.461649 57.279072 142.778546 57.056025 143.16088 56.981407 C 143.554747 56.905175 143.935025 56.967254 144.304986 57.17424 Z M 125.849032 50.911347 C 124.816498 50.860493 124.285406 50.560791 124.24422 50.013855 C 124.219505 49.466968 124.456699 48.909336 124.952528 48.33436 C 125.446696 47.764321 125.956791 47.375503 126.476216 47.171179 C 127.318643 46.905236 127.92789 46.95647 128.310554 47.321609 C 128.708027 47.691733 128.88943 48.164972 128.861362 48.738054 C 128.839892 49.307861 128.576454 49.82918 128.082582 50.300398 C 127.583775 50.769955 126.838704 50.97525 125.849032 50.911347 Z M 185.270575 57.479689 C 185.587654 57.74581 185.757918 58.088901 185.786302 58.510625 C 185.80975 58.930687 185.688438 59.291023 185.420705 59.596569 C 178.806062 67.360617 173.567307 70.515462 169.714313 69.064427 C 166.950439 68.018526 165.469778 64.711805 165.269057 59.137664 C 164.696094 60.170282 164.078214 61.352645 163.413753 62.689689 C 162.765813 64.010312 162.230579 65.094101 161.811375 65.931183 C 161.505998 66.707665 161.195881 67.416605 160.877752 68.051406 C 160.569544 68.673059 160.2847 69.192667 160.016671 69.597033 C 159.865841 69.914458 159.589405 70.376445 159.195621 70.974784 C 158.801838 71.573123 158.307818 72.093752 157.706965 72.539945 C 157.107773 72.981201 156.420619 73.096083 155.647164 72.879654 C 154.70417 72.62813 153.996364 71.939201 153.527019 70.819465 C 153.057674 69.699729 152.771459 68.476778 152.66671 67.155549 C 152.566947 65.819511 152.515854 64.730673 152.518369 63.890697 C 152.513792 63.218696 152.519038 62.566489 152.514314 61.943899 C 152.514526 61.32297 152.542594 60.749889 152.59192 60.227929 C 150.774029 62.836319 149.029983 65.535517 147.361442 68.320586 C 145.697838 71.107317 143.919372 74.300519 142.037579 77.898581 C 141.414713 79.095752 140.740937 79.693253 140.01459 79.69602 C 139.746132 79.693569 139.509199 79.613803 139.307115 79.446848 C 139.038952 79.345577 138.805589 79.173587 138.600428 78.934154 C 138.387006 78.702932 138.263224 78.2381 138.240614 77.538045 C 138.213068 76.836329 138.323353 75.757857 138.563259 74.294368 C 138.791631 72.832492 139.24405 70.803062 139.920517 68.206078 C 140.70579 65.024725 141.635921 61.870159 142.705975 58.740717 C 143.772754 55.604677 144.856679 52.793152 145.947877 50.30282 C 146.100664 49.881638 146.37822 49.595886 146.770673 49.442241 C 147.166449 49.278723 147.54355 49.301263 147.898654 49.519734 C 148.3149 49.670859 148.590779 49.945091 148.716421 50.339107 C 148.85692 50.721638 148.845914 51.097127 148.678466 51.463913 C 147.281841 54.747198 146.011597 58.177447 144.879268 61.753047 C 143.761797 65.317162 142.891096 68.42579 142.263842 71.088802 C 143.881557 68.22617 145.472338 65.557808 147.039459 63.090311 C 148.604967 60.611281 150.244419 58.190118 151.959426 55.838356 C 152.128042 55.631335 152.402274 55.355456 152.782172 54.994247 C 153.180201 54.628151 153.71409 54.544104 154.387111 54.748703 C 155.061597 55.014246 155.437269 55.51442 155.512514 56.23769 C 155.60423 56.96101 155.620326 58.186446 155.570724 59.900853 C 155.570611 60.488841 155.557203 61.116318 155.533776 61.789882 C 155.50375 62.46672 155.49342 63.166676 155.49125 63.891361 C 155.491503 65.457685 155.594737 66.73444 155.799293 67.726562 C 156.003848 68.718685 156.186273 69.4011 156.353164 69.770534 C 156.452329 69.655539 156.596167 69.473149 156.769867 69.21838 C 156.948553 68.948802 157.17191 68.611831 157.439939 68.207464 C 157.641989 67.835841 157.885584 67.340815 158.167449 66.715789 C 158.459187 66.094086 158.787337 65.413199 159.156834 64.67479 C 160.517773 61.758685 161.627976 59.522051 162.479234 57.95663 C 163.346962 56.391258 164.091322 55.322918 164.713977 54.746676 C 165.334969 54.175369 165.987817 53.966504 166.660986 54.121693 C 167.501983 54.333383 167.981363 54.851984 168.109046 55.664351 C 168.240053 56.466845 168.300737 57.102779 168.300969 57.575477 C 168.249197 60.014569 168.445859 61.993237 168.890952 63.511481 C 169.337708 65.024789 169.977331 65.932569 170.803224 66.238094 C 171.74421 66.609845 173.245886 66.197642 175.303314 64.999824 C 177.365679 63.803668 179.9885 61.350861 183.168455 57.651276 C 183.424703 57.330873 183.762858 57.158947 184.18292 57.135499 C 184.602982 57.112051 184.966642 57.22349 185.270575 57.479689 Z M 208.320437 57.573394 C 208.69206 57.775444 208.900299 58.087355 208.950089 58.51079 C 209.001542 58.929289 208.92964 59.289773 208.72119 59.59879 C 205.644928 63.871852 202.824535 67.401223 200.269883 70.190227 C 197.721828 72.975958 195.168605 75.287329 192.611876 77.119404 C 190.690701 78.46751 188.788017 79.140389 186.9071 79.144641 C 185.446195 79.141914 184.164321 78.75432 183.068076 77.978583 C 182.343307 77.454306 181.632917 76.528197 180.933631 75.193659 C 180.231022 73.868993 179.857977 71.940854 179.804626 69.40592 C 179.744676 66.87426 180.367304 63.555718 181.674172 59.445356 C 181.674172 59.445356 181.677544 59.419014 181.677692 59.369603 C 183.240872 54.367321 185.075558 50.550063 187.171878 47.914507 C 189.284667 45.279 191.098762 43.93881 192.615823 43.888999 C 193.810079 43.834928 194.595793 44.357741 194.963092 45.454113 C 195.53506 46.95462 194.854988 49.105248 192.917941 51.904337 C 190.99575 54.691941 188.158951 57.649744 184.40588 60.782684 C 183.263482 64.420841 182.716374 67.270207 182.764558 69.330782 C 182.817678 71.393019 183.103105 72.879492 183.624113 73.796799 C 184.14351 74.702571 184.568345 75.285243 184.885425 75.551364 C 186.449959 76.699084 188.450378 76.388843 190.898217 74.619029 C 193.28814 72.939627 195.707545 70.764559 198.146562 68.0905 C 200.605372 65.406618 203.295272 62.003677 206.222859 57.878403 C 206.477445 57.562936 206.814037 57.363006 207.235909 57.285212 C 207.656119 57.212354 208.014892 57.305661 208.320437 57.573394 Z M 192.060836 47.169863 C 191.489895 47.527205 190.70361 48.29566 189.711852 49.478551 C 188.734953 50.649957 187.720212 52.35818 186.675889 54.595011 C 188.547421 52.77406 189.869666 51.229813 190.64922 49.958995 C 191.438695 48.67503 191.905943 47.744211 192.060836 47.169863 Z M 238.97423 57.248458 C 239.340868 57.465316 239.600178 57.772439 239.753824 58.164892 C 239.905857 58.54581 239.883317 58.922912 239.676331 59.292873 C 238.688313 61.427757 237.473859 63.827134 236.034633 66.486068 C 234.610265 69.133518 233.087027 71.797142 231.473129 74.4852 C 229.854294 77.171596 228.21147 79.619101 226.54793 81.834314 C 224.879453 84.047865 223.263281 85.844874 221.696091 87.235215 C 220.135498 88.622281 218.726869 89.31311 217.478414 89.315961 C 217.111135 89.313214 216.770445 89.23149 216.451408 89.069126 C 215.357353 88.66233 214.635626 87.671953 214.292775 86.111192 C 213.96312 84.543883 214.004428 82.299108 214.424957 79.368659 C 215.1489 74.11681 217.080106 66.6665 220.211979 57.021003 C 220.157632 57.019193 220.119707 57.033903 220.094928 57.058534 C 220.070148 57.083165 220.032223 57.097875 219.982812 57.097727 C 218.936427 57.822581 217.68243 58.576459 216.222433 59.370897 C 214.769083 60.14559 213.263788 60.666486 211.696676 60.93026 C 210.131226 61.189098 208.643352 60.842062 207.22807 59.903962 C 205.25912 58.504683 204.245452 56.553215 204.193614 54.062755 C 204.131954 51.552502 205.065788 48.81135 207.001717 45.836026 C 207.627117 44.892505 208.445519 43.849093 209.46352 42.702515 C 210.479859 41.560874 211.553079 40.674692 212.669985 40.050518 C 213.791827 39.428006 214.794941 39.403009 215.684264 39.97719 C 216.143026 40.230558 216.487568 40.676287 216.717888 41.314376 C 216.959792 41.934382 216.947011 42.902796 216.676271 44.213019 C 216.425324 45.513419 215.800831 47.254104 214.806066 49.441672 C 213.827772 51.62929 212.345191 54.465973 210.36326 57.953385 C 211.558538 58.108489 212.898589 57.768272 214.389963 56.945929 C 215.87645 56.105454 217.194765 55.323768 218.341632 54.594274 C 219.432492 53.867907 220.34325 53.333702 221.067309 52.994935 C 221.804563 52.649619 222.486239 52.714247 223.109061 53.18222 C 223.685748 53.656643 223.914604 54.233788 223.798904 54.920252 C 223.698062 55.595231 223.596051 56.110445 223.492871 56.465894 C 221.776904 61.889358 220.445786 66.398227 219.502789 69.9991 C 218.57465 73.588487 217.938496 76.473821 217.595938 78.666636 C 217.251719 80.864386 217.080425 82.515842 217.080446 83.609468 C 217.080466 84.703094 217.154099 85.41483 217.30628 85.746338 C 217.476544 86.089429 217.558302 86.287317 217.558155 86.336728 C 218.182062 86.442358 219.466464 85.434928 221.414637 83.321036 C 223.372682 81.210468 225.706147 78.03375 228.418305 73.79748 C 231.128851 69.549676 233.970891 64.290991 236.950974 58.034621 C 237.153172 57.613588 237.443874 57.337757 237.828018 57.208792 C 238.222033 57.083151 238.602458 57.095819 238.97423 57.248458 Z M 207.462721 51.942935 C 207.154745 53.037286 207.066408 53.936299 207.194436 54.633374 C 207.320803 55.335386 207.516768 55.895962 207.782332 56.315102 C 209.451267 53.398272 210.710096 51.030321 211.563755 49.212912 C 212.427336 47.382356 213.012966 45.969313 213.318985 44.978718 C 213.638199 43.981576 213.823103 43.285437 213.872084 42.878768 C 213.302952 43.181764 212.579766 43.779117 211.718996 44.670876 C 210.863211 45.547827 210.029902 46.619194 209.215795 47.878379 C 208.416546 49.12608 207.829451 50.478179 207.462721 51.942935 Z M 293.531535 57.403539 C 293.848763 57.620249 294.060276 57.938759 294.161138 58.357406 C 294.265324 58.76618 294.209893 59.126713 294.009653 59.44399 C 292.711976 61.584535 291.030255 63.821104 288.972699 66.161958 C 286.908545 68.506087 284.70154 70.703202 282.346698 72.768113 C 280.005052 74.826475 277.66454 76.506025 275.325162 77.806761 C 272.98246 79.11737 270.870651 79.7748 268.986459 79.772454 C 268.568108 79.774496 268.176198 79.74697 267.820601 79.693201 C 266.979456 79.530921 266.089788 79.072032 265.149935 78.321468 C 264.221617 77.569292 263.573403 76.229965 263.203682 74.291955 C 263.09818 73.772826 263.228047 73.305459 263.585024 72.898064 C 263.956859 72.479186 264.533328 71.925863 265.319367 71.239759 C 265.945147 70.719525 266.63383 70.094069 267.383753 69.368328 C 268.145209 68.640974 268.864002 67.860788 269.541791 67.022833 C 270.585261 65.621043 271.259446 64.336733 271.566007 63.164967 C 271.880827 61.984991 271.990372 61.153571 271.889658 60.685514 C 271.620855 60.798354 271.092628 61.192059 270.304976 61.866629 C 269.527197 62.544523 268.488811 63.898565 267.193092 65.935353 C 265.624703 68.276024 264.231712 70.895568 263.012456 73.798921 C 261.79325 76.685804 260.656196 79.638814 259.614492 82.651402 C 258.572739 85.68046 257.630201 88.578053 256.788539 91.339245 L 256.406473 92.425139 C 256.191952 93.111307 255.718219 93.457412 254.993534 93.455243 C 254.894713 93.454947 254.817299 93.456362 254.767888 93.456214 C 253.877333 93.293787 253.455623 92.767123 253.507647 91.894354 C 253.507267 91.471067 253.703522 90.284148 254.099736 88.323725 C 254.492626 86.373174 255.013968 83.877842 255.663812 80.821258 C 256.313606 77.781144 257.046786 74.395404 257.856754 70.667313 C 258.661786 66.937559 259.511588 63.107471 260.417694 59.175436 C 261.333722 55.230255 262.221499 51.368987 263.087623 47.588358 C 263.952085 43.812666 264.748118 40.338175 265.474059 37.169821 C 265.523815 37.054678 265.552213 36.921354 265.549383 36.766525 C 266.489992 32.862593 267.225461 29.812853 267.747528 27.625517 C 268.939514 22.828002 270.265253 18.465702 271.716534 14.530357 C 273.177689 10.598337 274.628266 7.448622 276.066604 5.08615 C 277.504992 2.707208 278.79693 1.383571 279.942417 1.115241 C 280.76969 0.959603 281.442465 1.246552 281.96734 1.972815 C 282.703875 2.968178 282.638183 5.105822 281.7752 8.38741 C 280.907281 11.667337 279.331758 15.841128 277.043695 20.907122 C 274.749085 25.95992 271.886117 31.607241 268.451468 37.858956 C 267.661111 41.088057 266.823731 44.620071 265.929454 48.451672 C 265.05331 52.278388 264.168709 56.179193 263.277312 60.149154 C 262.400773 64.10763 261.567589 67.888357 260.779422 71.486399 C 261.351413 70.228136 261.961231 68.988103 262.608876 67.7663 C 263.272991 66.544547 263.943507 65.3854 264.613825 64.292134 C 267.579057 59.695923 270.131983 57.483373 272.269332 57.647885 C 273.361 57.751622 274.118562 58.325408 274.542018 59.369244 C 275.064146 60.462786 275.061469 61.90722 274.540585 63.699273 C 274.018039 65.496263 273.136622 67.232885 271.889736 68.912414 C 271.149094 69.83912 270.359239 70.699798 269.521832 71.489511 C 268.694347 72.266078 267.941298 72.93581 267.269233 73.511905 C 267.11396 73.662967 266.94383 73.825513 266.752294 73.986348 C 266.573953 74.140635 266.436861 74.27034 266.331147 74.372139 C 266.53766 75.260505 266.847155 75.859302 267.266232 76.165257 C 267.68692 76.482745 268.053657 76.666663 268.354907 76.718622 C 269.51216 76.921377 271.038368 76.566894 272.935193 75.650237 C 274.845165 74.743501 276.909585 73.410648 279.121907 71.638481 C 281.337502 69.872913 283.534241 67.804235 285.72693 65.437432 C 287.913072 63.057434 289.816341 60.538239 291.431802 57.878186 C 291.638788 57.508224 291.949087 57.288451 292.366023 57.208995 C 292.786232 57.136137 293.178044 57.196603 293.531535 57.403539 Z M 279.311648 5.50268 C 278.423302 6.802819 277.230551 9.105086 275.743266 12.412805 C 274.265854 15.723848 272.796425 20.219127 271.331657 25.908515 C 273.941503 20.637606 275.858406 16.314957 277.080754 12.929034 C 278.303102 9.543112 279.043442 7.066552 279.311648 5.50268 Z M 313.233964 57.172641 C 313.605587 57.374691 313.82536 57.68499 313.903154 58.106862 C 313.980948 58.528734 313.913885 58.923819 313.713497 59.290507 C 312.718944 60.857146 311.465263 62.60583 309.950792 64.541494 C 308.43637 66.460688 306.797031 68.293863 305.02784 70.039357 C 303.260311 71.779914 301.498605 73.225672 299.739449 74.370031 C 297.996763 75.514439 296.402371 76.087772 294.951339 76.08837 C 294.325474 76.086496 293.77732 75.984387 293.306876 75.782041 C 291.528758 75.007557 290.549495 73.117132 290.367424 70.115704 C 290.191952 67.111002 290.799209 62.875019 292.202391 57.401208 C 292.300783 56.994686 292.540512 56.690704 292.90677 56.484275 C 293.276351 56.267974 293.647102 56.211438 294.014085 56.313005 C 294.418944 56.416332 294.724588 56.651125 294.929355 57.022319 C 295.147318 57.386965 295.205516 57.752779 295.102337 58.108228 C 294.260612 61.440938 293.7421 64.091099 293.538591 66.050452 C 293.335083 68.009805 293.294431 69.48542 293.423234 70.474021 C 293.548762 71.456025 293.74277 72.120358 293.995384 72.463696 C 294.264469 72.807083 294.422079 72.975551 294.471489 72.975699 C 295.149151 73.280781 296.131451 73.056432 297.433197 72.307637 C 298.739928 71.544034 300.204185 70.426792 301.822695 68.949313 C 303.439592 67.460299 305.067051 65.744028 306.706734 63.795562 C 308.349741 61.837224 309.825019 59.789445 311.13423 57.647288 C 311.388965 57.28241 311.705862 57.059363 312.089857 56.979808 C 312.483725 56.903577 312.867276 56.972253 313.233964 57.172641 Z M 294.778009 50.909749 C 293.745476 50.858894 293.212721 50.564129 293.173198 50.012256 C 293.148482 49.465369 293.385676 48.907737 293.879844 48.337698 C 294.375673 47.762723 294.885769 47.373905 295.41013 47.171243 C 296.247621 46.903637 296.856867 46.954872 297.23787 47.324947 C 297.635342 47.69507 297.818407 48.163374 297.795276 48.738117 C 297.767208 49.311199 297.510368 49.829243 297.009898 50.303736 C 296.516026 50.774954 295.772617 50.975313 294.778009 50.909749 Z M 376.091831 28.868885 C 376.347818 29.185881 376.448829 29.555117 376.396524 29.971658 C 376.345881 30.383263 376.145592 30.71701 375.785734 30.986045 C 375.150377 31.404135 374.542694 31.380905 373.970944 30.908144 C 373.296458 30.6426 371.748808 30.456795 369.3148 30.357275 C 366.898924 30.252868 363.863634 30.192724 360.212252 30.166971 C 356.572404 30.139605 352.561855 30.152305 348.187203 30.201796 C 343.81089 30.256224 339.311025 30.318517 334.690885 30.395273 C 330.087214 30.472079 325.620192 30.56741 321.294753 30.68293 C 319.676888 37.447368 317.978171 44.811082 316.196991 52.762538 C 314.430668 60.702509 312.683744 68.764417 310.967754 76.946652 C 308.72695 87.683501 306.995891 96.498149 305.777899 103.380723 C 304.541776 110.268184 303.746193 115.243118 303.389488 118.310461 C 303.489971 118.305821 303.590355 118.334121 303.693964 118.385489 C 304.115293 118.488866 304.401143 118.733482 304.553127 119.13087 C 304.706773 119.523322 304.705639 119.902135 304.553 120.273906 C 304.247327 121.14921 303.900651 121.966744 303.504762 122.718251 C 303.110485 123.481291 302.575709 123.8618 301.900434 123.859779 C 301.745605 123.86261 301.562871 123.834063 301.348907 123.784012 C 300.620074 123.516659 300.221532 122.953829 300.145068 122.087264 C 300.068556 121.237169 300.13305 120.049856 300.335227 118.535196 C 300.537764 116.350198 301.010006 113.200849 301.745356 109.090424 C 302.372885 105.234965 303.17696 100.724518 304.174051 95.559132 C 305.162881 90.401956 306.30802 84.747846 307.606193 78.590204 C 309.324289 70.254803 311.096583 61.970621 312.913204 53.734336 C 314.744633 45.503036 316.493647 37.843008 318.165183 30.755913 C 315.658253 30.807702 313.283084 30.859885 311.041338 30.907526 C 308.802865 30.961765 306.775231 31.010047 304.95511 31.062245 C 301.453226 31.16376 298.410943 31.238651 295.810128 31.291806 C 293.204378 31.343298 291.349753 31.367393 290.256127 31.367413 C 289.837776 31.369455 289.489024 31.230061 289.20987 30.949231 C 288.914295 30.651881 288.767099 30.305565 288.76667 29.898748 C 288.771226 29.477123 288.915556 29.130032 289.207921 28.849265 C 289.4888 28.553641 289.840053 28.408107 290.256742 28.411002 C 291.350368 28.410982 293.188572 28.370367 295.774627 28.295757 C 298.345875 28.216162 301.378335 28.121477 304.878606 28.008428 C 307.374002 27.958252 309.787047 27.907829 312.129276 27.855548 C 314.487975 27.803315 316.757726 27.754111 318.945126 27.70466 C 319.722632 24.366817 320.486351 21.233163 321.23467 18.292166 C 321.997847 15.339684 322.720745 12.63743 323.393494 10.18208 C 323.508356 9.775608 323.743149 9.469964 324.097873 9.265147 C 324.467454 9.048846 324.838205 8.99231 325.205188 9.093877 C 325.611709 9.192268 325.917353 9.427061 326.12212 9.798255 C 326.338421 10.167837 326.394908 10.555057 326.296517 10.961578 C 325.045692 15.607391 323.615921 21.16018 321.998943 27.628156 C 330.129128 27.474615 337.086512 27.360385 342.861223 27.282144 C 348.650791 27.192419 353.501415 27.149293 357.403222 27.149444 C 361.311626 27.14632 364.473742 27.205197 366.89123 27.321137 C 369.323576 27.425593 371.159675 27.538146 372.407735 27.667056 C 373.668992 27.789418 374.561159 27.963379 375.080965 28.182343 C 375.600819 28.384836 375.936129 28.61313 376.091831 28.868885 Z M 346.385095 57.24882 C 346.690789 57.467143 346.897366 57.783991 346.998228 58.202637 C 347.113948 58.609799 347.035449 58.973557 346.769329 59.290637 C 344.272416 63.148735 341.801071 66.71868 339.345422 69.997148 C 336.897983 73.283875 334.488681 75.934965 332.109258 77.958626 C 329.742981 79.992209 327.437381 81.013052 325.200719 81.012945 C 324.728021 81.013177 324.257133 80.959063 323.789668 80.862136 C 321.914968 80.439826 320.486983 79.343572 319.494179 77.574988 C 318.706142 76.177597 318.246536 74.555546 318.120297 72.710498 C 317.992446 70.853916 318.085402 68.96176 318.407377 67.042291 C 318.712932 65.106301 319.176195 63.305841 319.797167 61.640908 C 320.843413 58.761743 322.159419 56.550431 323.748508 54.9971 C 325.340922 53.433897 326.841379 52.8784 328.253155 53.337205 C 328.506608 53.400551 328.881407 53.642139 329.382488 54.063631 C 329.878683 54.466991 330.252101 55.169742 330.506067 56.162013 C 330.771567 57.152671 330.647051 58.583564 330.12592 60.457968 C 330.024205 60.874362 329.800897 61.194863 329.45932 61.409601 C 329.11613 61.612805 328.738831 61.656146 328.330697 61.54622 C 327.909368 61.442843 327.590528 61.214599 327.375839 60.856552 C 327.171072 60.485358 327.124408 60.117931 327.221039 59.749286 C 327.542654 58.500155 327.662269 57.606178 327.588144 57.059143 C 327.509082 56.510446 327.416085 56.21535 327.302604 56.160658 C 327.098364 56.163341 326.49756 56.593064 325.508401 57.458086 C 324.512694 58.309912 323.552152 60.069356 322.625161 62.724882 C 321.68068 65.171184 321.172534 67.659968 321.095786 70.189572 C 321.019039 72.719175 321.372191 74.690077 322.148694 76.08908 C 322.666182 77.08214 323.425307 77.68393 324.417809 77.902661 C 325.81522 78.208251 327.404429 77.715606 329.17224 76.431275 C 330.953197 75.156867 332.740421 73.439426 334.533913 71.278955 C 336.338938 69.116871 338.093336 66.811343 339.783908 64.368922 C 341.474531 61.91003 342.970145 59.671257 344.265815 57.650939 C 344.482525 57.333712 344.796098 57.120537 345.203211 57.021287 C 345.621858 56.920424 346.020218 56.994086 346.385095 57.24882 Z M 380.712894 57.094644 C 381.016975 57.301432 381.220277 57.611682 381.32114 58.030329 C 381.422002 58.448976 381.371409 58.844111 381.169359 59.215734 C 378.660468 63.223676 376.442048 66.483089 374.505888 68.985716 C 372.58786 71.483455 370.931854 73.382461 369.544419 74.695929 C 368.168568 75.991315 367.012997 76.877251 366.069496 77.345476 C 365.140803 77.818687 364.390698 78.05526 363.81918 78.055196 C 363.247662 78.055133 362.799743 78.030733 362.482023 77.978724 C 361.287238 77.658919 360.403295 76.938169 359.828532 75.821411 C 359.25543 74.699717 358.875133 73.544013 358.684365 72.3477 C 358.505131 71.149775 358.390939 70.232039 358.340128 69.599429 C 358.23852 67.77916 358.029718 66.554793 357.7104 65.936202 C 357.404277 65.311063 357.169696 64.995778 357.003333 65.000221 C 356.953923 65.000074 356.92758 64.996701 356.92758 64.996701 C 356.25558 65.001277 355.132752 65.953192 353.567307 67.860704 C 352.005186 69.758344 350.168079 72.733963 348.054323 76.792499 C 345.952052 80.865891 343.752248 86.159439 341.448313 92.676416 C 341.243714 93.349438 340.778241 93.687332 340.053556 93.685163 C 339.943201 93.68648 339.832846 93.687796 339.729089 93.685839 C 338.901239 93.48407 338.517406 92.959167 338.569331 92.119338 C 338.616467 91.228438 338.855106 89.638124 339.273712 87.35001 C 339.682446 85.058572 340.239129 82.31135 340.950361 79.10507 C 341.65172 75.895467 342.432945 72.415991 343.300632 68.663366 C 344.151849 64.910693 345.037817 61.103772 345.950274 57.250813 C 346.86933 53.39458 347.741756 49.709498 348.567553 46.195567 C 349.406546 42.675088 350.165428 39.506833 350.8376 36.694075 C 351.514708 33.88298 352.06004 31.626539 352.480146 29.937947 C 352.901913 28.244418 353.110427 27.363883 353.108963 27.302939 C 354.307497 22.518619 355.631574 18.161255 357.082856 14.225911 C 358.542398 10.282356 359.988088 7.11451 361.414991 4.72071 C 362.850154 2.318699 364.118974 1.014758 365.209917 0.810499 C 366.103071 0.655058 366.784155 0.917327 367.254832 1.59237 C 367.981347 2.633819 367.907297 4.812614 367.045876 8.122206 C 366.191054 11.428525 364.633614 15.613899 362.36862 20.676668 C 360.102013 25.727903 357.220913 31.38011 353.722046 37.626692 C 352.791309 41.533948 351.768876 45.811511 350.651475 50.452782 C 349.530799 55.087455 348.434754 59.746908 347.364953 64.442673 C 346.295152 69.138439 345.317046 73.463898 344.428973 77.423987 C 345.83947 74.458619 347.285343 71.779941 348.759995 69.391225 C 350.24623 66.984426 351.730838 65.121142 353.205608 63.793111 C 354.693575 62.458533 356.09531 61.869799 357.40754 62.020313 C 358.548471 62.173607 359.394981 62.744366 359.945409 63.737524 C 360.490901 64.72902 360.855025 65.785854 361.032843 66.906365 C 361.222196 68.025263 361.318552 68.849065 361.318636 69.371173 C 361.470971 71.301944 361.725316 72.717502 362.080061 73.606311 C 362.449663 74.483636 362.820497 74.949208 363.187628 75.001365 C 363.291237 75.052733 363.642243 74.989549 364.235709 74.810153 C 364.839098 74.61761 365.721999 74.035558 366.892675 73.055788 C 368.074933 72.057934 369.62659 70.354612 371.55097 67.935949 C 373.483609 65.509075 375.829446 62.050753 378.590093 57.572515 C 378.795269 57.2569 379.108842 57.043725 379.527489 56.942863 C 379.946136 56.842 380.341271 56.892594 380.712894 57.094644 Z M 364.678019 5.181763 C 363.78635 6.491774 362.596873 8.80064 361.109588 12.108359 C 359.632175 15.419402 358.138066 19.906372 356.622276 25.584077 C 359.281483 20.329786 361.224728 16.01051 362.447075 12.624588 C 363.667811 9.227131 364.409813 6.745636 364.678019 5.181763 Z M 403.753363 57.575372 C 404.12005 57.77576 404.333225 58.089333 404.384677 58.507832 C 404.434467 58.931267 404.35763 59.290089 404.155777 59.595832 C 401.072918 63.872167 398.257461 67.4032 395.697872 70.190543 C 393.154753 72.977935 390.603192 75.28437 388.044801 77.121382 C 386.123626 78.469487 384.220943 79.142367 382.336751 79.14002 C 380.874185 79.14223 379.592311 78.754636 378.502664 77.975624 C 377.776232 77.456283 377.060906 76.528513 376.363282 75.189038 C 375.665609 73.866034 375.285967 71.94117 375.237551 69.407898 C 375.172665 66.874576 375.795293 63.556033 377.108759 59.442398 C 377.108759 59.442398 377.105534 59.41933 377.105682 59.369919 C 378.673798 54.369298 380.503547 50.550379 382.604803 47.916485 C 384.717593 45.280978 386.531687 43.940787 388.043812 43.889315 C 389.238069 43.835244 390.023783 44.358056 390.391082 45.454429 C 390.96305 46.954936 390.282978 49.105564 388.350866 51.906314 C 386.428676 54.693918 383.591877 57.651722 379.835531 60.778064 C 378.691471 64.421157 378.144364 67.270523 378.192548 69.331098 C 378.245667 71.393335 378.531094 72.879808 379.052103 73.797114 C 379.578097 74.699613 379.996335 75.285559 380.313414 75.55168 C 381.877948 76.6994 383.884966 76.385885 386.326207 74.619344 C 388.716129 72.939943 391.135535 70.764875 393.579488 68.092478 C 396.033362 65.406934 398.724923 61.999057 401.650848 57.878719 C 401.907097 57.558316 402.242027 57.363322 402.663898 57.285528 C 403.084108 57.21267 403.447817 57.307639 403.753363 57.575372 Z M 387.488825 47.170178 C 386.917884 47.527521 386.136535 48.297638 385.144778 49.480528 C 384.162942 50.650273 383.149863 52.35356 382.108814 54.596988 C 383.980347 52.776038 385.302591 51.231791 386.077209 49.959311 C 386.866684 48.675346 387.338869 47.746189 387.488825 47.170178 Z M 431.594714 57.573069 C 431.954804 57.776731 432.182836 58.07882 432.282135 58.469462 C 432.399566 58.855218 432.345748 59.227285 432.133826 59.595585 C 429.688217 63.921592 427.484408 67.251872 425.525722 69.576552 C 423.580232 71.894683 421.587565 72.916463 419.554269 72.655087 C 416.943005 72.347511 414.88441 69.533168 413.366952 64.213669 C 412.845036 62.499199 412.38757 61.262559 411.996167 60.515284 C 411.611412 59.748265 411.301522 59.281229 411.059949 59.10098 C 410.828297 58.907584 410.667166 58.814868 410.563409 58.812911 C 410.41039 58.761395 410.098626 58.920223 409.628118 59.289396 C 409.155998 59.647034 408.476645 60.456985 407.585124 61.717586 C 406.710122 62.961766 405.61234 64.900325 404.30165 67.536585 C 403.002495 70.171234 401.41384 73.780055 399.53075 78.361389 C 399.276888 78.984852 398.837856 79.293179 398.216928 79.292967 C 398.045629 79.295748 397.917241 79.269012 397.813632 79.217644 C 396.936371 79.015727 396.549313 78.467756 396.64586 77.577003 C 396.904257 75.438288 397.374478 72.964214 398.06312 70.151507 C 398.735291 67.33875 399.473492 64.47678 400.272784 61.563934 C 401.088596 58.634668 401.834267 56.02801 402.506523 53.737361 C 402.659606 53.217358 402.801057 52.731909 402.929213 52.285948 C 403.067241 51.843311 403.18875 51.417095 403.288803 51.005637 C 403.444865 50.591054 403.706 50.288783 404.073821 50.110358 C 404.44003 49.920399 404.807456 49.873735 405.162905 49.976915 C 405.579299 50.07863 405.894815 50.316746 406.096308 50.681342 C 406.312609 51.050924 406.33943 51.444643 406.175109 51.867438 C 406.071781 52.272297 405.955208 52.700175 405.827052 53.146136 C 405.703832 53.593758 405.564044 54.074272 405.410961 54.594274 C 405.039639 55.942077 404.621787 57.428092 404.149194 59.044058 C 403.676601 60.660024 403.207233 62.299057 402.739428 63.966095 C 404.51995 60.636196 406.035259 58.420539 407.278758 57.322401 C 408.525531 56.23086 409.673419 55.710542 410.717487 55.759784 C 412.179708 55.872865 413.323603 56.686626 414.154107 58.20273 C 414.989597 59.704026 415.699184 61.448704 416.26806 63.431781 C 417.047217 66.14512 417.771711 67.861844 418.444816 68.58855 C 419.134392 69.315306 419.629073 69.674192 419.937069 69.673467 C 420.623533 69.789167 421.415233 69.412721 422.322041 68.547452 C 423.233785 67.683845 424.14622 66.589656 425.04781 65.266498 C 425.965871 63.94339 426.8246 62.63328 427.625658 61.331233 C 428.439913 60.022637 429.05911 58.950628 429.479975 58.10861 C 429.681976 57.753457 429.995598 57.523812 430.414245 57.42295 C 430.832941 57.305617 431.228076 57.356211 431.594714 57.573069 Z M 431.594714 57.573069 " stroke="#e9d0b6" stroke-width="2.931821" stroke-opacity="1" stroke-miterlimit="4"/></svg>